<svg xmlns="http://www.w3.org/2000/svg" width="160.45000000000002" height="35" viewBox="0 0 160.45000000000002 35"><rect class="svg__rect" x="0" y="0" width="65.98" height="35" fill="#FFFFFF"/><rect class="svg__rect" x="63.980000000000004" y="0" width="96.47000000000001" height="35" fill="#000000"/><path class="svg__text" d="M15.70 22L14.22 22L14.22 13.47L19.64 13.47L19.64 14.66L15.70 14.66L15.70 17.20L19.13 17.20L19.13 18.38L15.70 18.38L15.70 22ZM23.66 19.16L23.66 19.16L23.66 13.47L25.14 13.47L25.14 19.18Q25.14 20.03 25.57 20.48Q26.01 20.93 26.85 20.93L26.85 20.93Q28.56 20.93 28.56 19.13L28.56 19.13L28.56 13.47L30.04 13.47L30.04 19.17Q30.04 20.53 29.17 21.32Q28.30 22.12 26.85 22.12L26.85 22.12Q25.39 22.12 24.52 21.33Q23.66 20.55 23.66 19.16ZM34.34 18.19L34.34 18.19L34.34 17.39Q34.34 16.19 34.77 15.27Q35.19 14.35 35.99 13.85Q36.79 13.35 37.84 13.35L37.84 13.35Q39.25 13.35 40.12 14.12Q40.98 14.89 41.12 16.29L41.12 16.29L39.64 16.29Q39.54 15.37 39.10 14.96Q38.67 14.55 37.84 14.55L37.84 14.55Q36.88 14.55 36.36 15.26Q35.84 15.96 35.83 17.33L35.83 17.33L35.83 18.09Q35.83 19.47 36.32 20.20Q36.82 20.92 37.77 20.92L37.77 20.92Q38.64 20.92 39.08 20.53Q39.52 20.14 39.64 19.22L39.64 19.22L41.12 19.22Q40.99 20.59 40.11 21.35Q39.23 22.12 37.77 22.12L37.77 22.12Q36.75 22.12 35.98 21.63Q35.20 21.15 34.78 20.26Q34.36 19.37 34.34 18.19ZM46.91 22L45.43 22L45.43 13.47L46.91 13.47L46.91 17.47L47.73 16.46L50.23 13.47L52.02 13.47L48.85 17.25L52.20 22L50.45 22L47.88 18.31L46.91 19.34L46.91 22Z" fill="#000000"/><path class="svg__text" d="M77.74 17.80L77.74 17.80Q77.74 16.54 78.34 15.54Q78.94 14.55 79.99 13.99Q81.04 13.43 82.36 13.43L82.36 13.43Q83.51 13.43 84.43 13.84Q85.36 14.25 85.97 15.02L85.97 15.02L84.46 16.39Q83.65 15.40 82.48 15.40L82.48 15.40Q81.79 15.40 81.26 15.70Q80.73 16 80.43 16.54Q80.14 17.09 80.14 17.80L80.14 17.80Q80.14 18.51 80.43 19.05Q80.73 19.60 81.26 19.90Q81.79 20.20 82.48 20.20L82.48 20.20Q83.65 20.20 84.46 19.22L84.46 19.22L85.97 20.58Q85.36 21.35 84.44 21.76Q83.51 22.17 82.36 22.17L82.36 22.17Q81.04 22.17 79.99 21.61Q78.94 21.05 78.34 20.05Q77.74 19.06 77.74 17.80ZM91.93 22L89.50 22L93.21 13.60L95.55 13.60L99.27 22L96.80 22L96.14 20.37L92.59 20.37L91.93 22ZM94.36 15.93L93.28 18.61L95.44 18.61L94.36 15.93ZM105.75 22L103.42 22L103.42 13.60L105.38 13.60L109.09 18.07L109.09 13.60L111.41 13.60L111.41 22L109.46 22L105.75 17.52L105.75 22ZM116.15 17.80L116.15 17.80Q116.15 16.54 116.75 15.54Q117.34 14.55 118.40 13.99Q119.45 13.43 120.77 13.43L120.77 13.43Q121.92 13.43 122.84 13.84Q123.77 14.25 124.38 15.02L124.38 15.02L122.87 16.39Q122.05 15.40 120.89 15.40L120.89 15.40Q120.20 15.40 119.67 15.70Q119.14 16 118.84 16.54Q118.54 17.09 118.54 17.80L118.54 17.80Q118.54 18.51 118.84 19.05Q119.14 19.60 119.67 19.90Q120.20 20.20 120.89 20.20L120.89 20.20Q122.05 20.20 122.87 19.22L122.87 19.22L124.38 20.58Q123.77 21.35 122.85 21.76Q121.92 22.17 120.77 22.17L120.77 22.17Q119.45 22.17 118.40 21.61Q117.34 21.05 116.75 20.05Q116.15 19.06 116.15 17.80ZM135.66 22L128.92 22L128.92 13.60L135.51 13.60L135.51 15.44L131.27 15.44L131.27 16.85L135.00 16.85L135.00 18.63L131.27 18.63L131.27 20.17L135.66 20.17L135.66 22ZM142.84 22L140.46 22L140.46 13.60L144.31 13.60Q145.45 13.60 146.29 13.98Q147.13 14.35 147.58 15.06Q148.04 15.76 148.04 16.71L148.04 16.71Q148.04 17.62 147.61 18.30Q147.19 18.98 146.39 19.36L146.39 19.36L148.21 22L145.66 22L144.14 19.77L142.84 19.77L142.84 22ZM142.84 15.47L142.84 17.93L144.16 17.93Q144.89 17.93 145.27 17.61Q145.64 17.29 145.64 16.71L145.64 16.71Q145.64 16.12 145.27 15.79Q144.89 15.47 144.16 15.47L144.16 15.47L142.84 15.47Z" fill="#FFFFFF" x="76.98"/></svg>